<?xml version="1.0" encoding="UTF-8" standalone="no"?>
<!-- Created with Inkscape (http://www.inkscape.org/) -->

<svg
   xmlns:dc="http://purl.org/dc/elements/1.1/"
   xmlns:cc="http://creativecommons.org/ns#"
   xmlns:rdf="http://www.w3.org/1999/02/22-rdf-syntax-ns#"
   xmlns:svg="http://www.w3.org/2000/svg"
   xmlns="http://www.w3.org/2000/svg"
   version="1.1"
   width="752.03748"
   height="220.35001"
   id="svg2"
   xml:space="preserve"><metadata
     id="metadata8"><rdf:RDF><cc:Work
         rdf:about=""><dc:format>image/svg+xml</dc:format><dc:type
           rdf:resource="http://purl.org/dc/dcmitype/StillImage" /><dc:title></dc:title></cc:Work></rdf:RDF></metadata><defs
     id="defs6"><clipPath
       id="clipPath18"><path
         d="m 0,0 6016,0 0,1762.8 -6016,0 L 0,0 z"
         id="path20" /></clipPath></defs><g
     transform="matrix(1.25,0,0,-1.25,0,220.35)"
     id="g10"><g
       transform="scale(0.1,0.1)"
       id="g12"><g
         id="g14"><g
           clip-path="url(#clipPath18)"
           id="g16"><path
             d="M 6016.29,881.246 C 6016.29,14.1211 5194.47,0.25 5179.35,0 l -4308.889,0 0,1762.5 4308.889,0 c 214.61,0 836.94,-183.99 836.94,-881.254"
             id="path22"
             style="fill:#26519e;fill-opacity:1;fill-rule:nonzero;stroke:none" /><path
             d="M 903.086,1762.8 903.02,0.0117188 835,0 C 835,0 0,-10 0,884.996 0,1780 835,1762.5 835,1762.5 l 68.086,0.3"
             id="path24"
             style="fill:#26519e;fill-opacity:1;fill-rule:nonzero;stroke:none" /><path
             d="m 5930.84,880.004 c 0,-785.3126 -736.86,-798.3321 -736.86,-798.3321 l -3819.81,0 0,1596.6581 3819.81,0 c 188.96,0 736.86,-166.66 736.86,-798.326"
             id="path26"
             style="fill:#ffffff;fill-opacity:1;fill-rule:nonzero;stroke:none" /><path
             d="m 1052.5,1266.67 0,242.5 -375,0 c 0,0 -510,15 -510,-615.002 0,-629.996 475,-629.996 557.5,-629.996 82.5,0 495,0 495,0 l 0,709.996 -495,0 0,-234.996 242.5,0 0,-227.5 -265,0 c 0,0 -112.914,2.918 -172.637,84.988 0,0 -57.363,67.512 -57.363,215.008 0,147.5 2.5,190.002 2.5,190.002 0,0 -18.75,223.75 215,262.5 l 362.5,2.5"
             id="path28"
             style="fill:#ffffff;fill-opacity:1;fill-rule:nonzero;stroke:none" /><path
             d="m 2091.25,691.25 0,129.996 -268.75,0 c 0,0 -97.5,-11.25 -112.5,112.5 l 440,0 c 0,0 48.75,356.254 -337.5,350.004 0,0 -328.75,12.5 -328.75,-298.754 C 1483.75,673.75 1800,692.5 1800,692.5 l 291.25,-1.25"
             id="path30"
             style="fill:#26519e;fill-opacity:1;fill-rule:nonzero;stroke:none" /><path
             d="m 1707.5,1041.08 c 0,0 5,115.17 113.75,115.17 108.75,0 108.75,-115 108.75,-115 l -222.5,-0.17"
             id="path32"
             style="fill:#ffffff;fill-opacity:1;fill-rule:nonzero;stroke:none" /><path
             d="m 2638.75,1117.5 0,150.16 535.63,0 0,-126.41 -291.25,-291.254 310,0 0,-158.664 -577.5,0 0,150.539 275,275.629 -251.88,0"
             id="path34"
             style="fill:#26519e;fill-opacity:1;fill-rule:nonzero;stroke:none" /><path
             d="m 3301.25,691.25 0,791.66 221.91,0 0,-285.83 c 0,0 62.26,84.17 193.09,84.17 0,0 194.17,9.58 196.25,-185.42 l 0,-404.58 -223.34,0 0,331.67 c 0,0 1.25,85.41 -75.83,85.41 0,0 -87.09,11.26 -90.42,-124.162 l 0,-292.918 -221.66,0"
             id="path36"
             style="fill:#26519e;fill-opacity:1;fill-rule:nonzero;stroke:none" /><path
             d="m 4255,691.25 c 0,0 -220.42,-22.5 -220.42,159.996 0,0 -2.09,116.258 105,145.422 107.09,29.162 259.59,53.332 314.59,82.912 0,0 10.84,78.34 -75,69.17 0,0 -100.84,11.25 -114.17,-67.5 L 4053.33,1105 c 0,0 1.25,172.92 264.17,175.42 l 100.83,0 c 0,0 250.84,20 254.58,-213.75 l 0,-375.42 -206.66,0 0,75.836 c 0,0 -50,-73.754 -211.25,-75.836"
             id="path38"
             style="fill:#26519e;fill-opacity:1;fill-rule:nonzero;stroke:none" /><path
             d="m 4456.67,969.168 0,-60.414 c 0,0 -2.5,-100.836 -123.75,-100.836 0,0 -70,-8.762 -72.5,55.828 0,0 -11.68,50.199 97.91,76.449 l 98.34,28.973"
             id="path40"
             style="fill:#ffffff;fill-opacity:1;fill-rule:nonzero;stroke:none" /><path
             d="m 4832.5,691.25 223.332,0 0,792.082 -223.332,0 0,-792.082 z"
             id="path42"
             style="fill:#26519e;fill-opacity:1;fill-rule:nonzero;stroke:none" /><path
             d="m 5215.83,691.25 0,122.078 283.34,0 c 0,0 85.83,-6.242 85.83,50.418 0,0 6.25,37.5 -65.42,47.5 l -181.25,35.5 c 0,0 -140,30.75 -140,161.164 0,130.42 132.07,161.59 132.07,161.59 0,0 52.92,16.75 130.84,16.75 l 201.26,0 0,-116.25 -189.58,0 c 0,0 -72.09,1.66 -72.09,-44.59 0,0 -4.58,-42.5 86.67,-45.83 0,0 132.07,-14.16 172.91,-28.33 0,0 96.68,-30.84 117.09,-96.254 0,0 24.57,-66.25 -1.26,-132.918 -25.83,-66.668 -105.83,-130.828 -288.33,-130.828 -182.5,0 -272.08,0 -272.08,0"
             id="path44"
             style="fill:#26519e;fill-opacity:1;fill-rule:nonzero;stroke:none" /><path
             d="m 1740.63,258.121 0,293.129 192.5,0 c 0,0 95.62,0 95.62,-90.629 0,-90.621 -96.87,-93.75 -96.87,-93.75 l -84.38,0 0,-108.973 -106.87,0.223"
             id="path46"
             style="fill:#26519e;fill-opacity:1;fill-rule:nonzero;stroke:none" /><path
             d="m 1846.25,426.559 0,62.191 32.19,0 c 0,0 46.87,2.18 46.87,-30 0,-32.191 -46.56,-32.191 -46.56,-32.191 l -32.5,0"
             id="path48"
             style="fill:#ffffff;fill-opacity:1;fill-rule:nonzero;stroke:none" /><path
             d="m 2076.67,258.121 0,212.707 89.16,0 0,-31.656 c 0,0 19.48,37.387 56.98,37.387 0,0 29.85,0.472 45.94,-11.559 l -28.44,-58.441 c 0,0 -67.81,26.562 -67.81,-51.879 0,-78.43 0,-96.559 0,-96.559 l -95.83,0"
             id="path50"
             style="fill:#26519e;fill-opacity:1;fill-rule:nonzero;stroke:none" /><path
             d="m 3642.92,256.871 0,212.707 89.17,0 0,-31.656 c 0,0 19.47,37.387 56.97,37.387 0,0 29.85,0.472 45.94,-11.559 l -28.44,-58.441 c 0,0 -67.81,26.562 -67.81,-51.879 0,-78.43 0,-96.559 0,-96.559 l -95.83,0"
             id="path52"
             style="fill:#26519e;fill-opacity:1;fill-rule:nonzero;stroke:none" /><path
             d="m 2538.48,259.59 0,48.762 -112.68,0 c 0,0 -40.89,-4.223 -47.19,42.179 l 184.51,0 c 0,0 20.43,133.617 -141.52,131.27 0,0 -137.85,4.687 -137.85,-112.039 0,-116.742 132.61,-109.703 132.61,-109.703 l 122.12,-0.469"
             id="path54"
             style="fill:#26519e;fill-opacity:1;fill-rule:nonzero;stroke:none" /><path
             d="m 2377.57,390.789 c 0,0 2.1,43.191 47.7,43.191 45.6,0 45.6,-43.121 45.6,-43.121 l -93.3,-0.07"
             id="path56"
             style="fill:#ffffff;fill-opacity:1;fill-rule:nonzero;stroke:none" /><path
             d="m 2280,691.25 221.25,0 0,576.246 -221.25,0 0,-576.246 z"
             id="path58"
             style="fill:#2f58a8;fill-opacity:1;fill-rule:nonzero;stroke:none" /><path
             d="m 2280,1336.25 221.25,0 0,147.5 -221.25,0 0,-147.5 z"
             id="path60"
             style="fill:#2f58a8;fill-opacity:1;fill-rule:nonzero;stroke:none" /><path
             d="m 2608.75,258.539 96.25,0 0,211.93 -96.25,0 0,-211.93 z"
             id="path62"
             style="fill:#26519e;fill-opacity:1;fill-rule:nonzero;stroke:none" /><path
             d="m 2608.75,495.762 96.25,0 0,54.2383 -96.25,0 0,-54.2383 z"
             id="path64"
             style="fill:#26519e;fill-opacity:1;fill-rule:nonzero;stroke:none" /><path
             d="m 2280,691.25 221.25,0 0,576.246 -221.25,0 0,-576.246 z"
             id="path66"
             style="fill:#26519e;fill-opacity:1;fill-rule:nonzero;stroke:none" /><path
             d="m 2280,1336.25 221.25,0 0,147.5 -221.25,0 0,-147.5 z"
             id="path68"
             style="fill:#26519e;fill-opacity:1;fill-rule:nonzero;stroke:none" /><path
             d="m 4658.75,258.539 96.25,0 0,211.93 -96.25,0 0,-211.93 z"
             id="path70"
             style="fill:#26519e;fill-opacity:1;fill-rule:nonzero;stroke:none" /><path
             d="m 4658.75,495.762 96.25,0 0,54.2383 -96.25,0 0,-54.2383 z"
             id="path72"
             style="fill:#26519e;fill-opacity:1;fill-rule:nonzero;stroke:none" /><path
             d="m 2768.65,256.871 0,45.527 119.59,0 c 0,0 36.23,-2.328 36.23,18.801 0,0 2.64,13.981 -27.61,17.711 l -76.51,13.238 c 0,0 -59.09,11.473 -59.09,60.082 0,48.649 55.75,60.29 55.75,60.29 0,0 22.33,6.23 55.23,6.23 l 84.95,0 0,-43.352 -80.02,0 c 0,0 -30.44,0.614 -30.44,-16.617 0,0 -1.93,-15.851 36.58,-17.101 0,0 55.76,-5.289 72.98,-10.559 0,0 40.82,-11.5 49.43,-35.902 0,0 10.37,-24.707 -0.52,-49.559 -10.91,-24.859 -44.68,-48.789 -121.71,-48.789 -77.04,0 -114.84,0 -114.84,0"
             id="path74"
             style="fill:#26519e;fill-opacity:1;fill-rule:nonzero;stroke:none" /><path
             d="m 3021.25,471.672 105,-213.551 84.08,0 105.85,214.258 -96.18,0 -50.62,-131.758 -47.49,131.25 -100.64,-0.199"
             id="path76"
             style="fill:#26519e;fill-opacity:1;fill-rule:nonzero;stroke:none" /><path
             d="m 3574.73,257.711 0,49.168 -112.68,0 c 0,0 -40.89,-4.25 -47.19,42.551 l 184.51,0 c 0,0 20.43,134.742 -141.52,132.371 0,0 -137.85,4.73 -137.85,-112.981 0,-117.73 132.61,-110.64 132.61,-110.64 l 122.12,-0.469"
             id="path78"
             style="fill:#26519e;fill-opacity:1;fill-rule:nonzero;stroke:none" /><path
             d="m 3413.82,390.02 c 0,0 2.1,43.562 47.7,43.562 45.6,0 45.6,-43.492 45.6,-43.492 l -93.3,-0.07"
             id="path80"
             style="fill:#ffffff;fill-opacity:1;fill-rule:nonzero;stroke:none" /><path
             d="m 3945.94,266.621 c 0,0 -93.75,0.051 -93.75,102.129 0,107.809 99.06,103.121 99.06,103.121 0,0 54.69,3.75 80.94,-30.941 l 0,30.941 91.25,0 0,-219.062 c 0,0 5,-78.129 -136.56,-78.129 -141.57,0 -108.13,0 -108.13,0 l 0,52.82 106.88,0 c 0,0 39.68,-2.5 39.68,30.621 0,35.629 0,35.629 0,35.629 0,0 -12.81,-27.129 -79.37,-27.129"
             id="path82"
             style="fill:#26519e;fill-opacity:1;fill-rule:nonzero;stroke:none" /><path
             d="m 3986.67,322.5 c 0,0 -41.34,0.641 -41.34,44.172 0,0 -5.33,47.5 39.67,47.5 45,0 40.75,-48.344 40.75,-48.344 0,0 3.42,-43.328 -39.08,-43.328"
             id="path84"
             style="fill:#ffffff;fill-opacity:1;fill-rule:nonzero;stroke:none" /><path
             d="m 4587.21,257.711 0,48.758 -115.43,0 c 0,0 -41.89,-4.219 -48.34,42.191 l 189.01,0 c 0,0 20.94,133.61 -144.98,131.27 0,0 -141.22,4.691 -141.22,-112.039 0,-116.743 135.85,-109.711 135.85,-109.711 l 125.11,-0.469"
             id="path86"
             style="fill:#26519e;fill-opacity:1;fill-rule:nonzero;stroke:none" /><path
             d="m 4422.36,388.91 c 0,0 2.15,43.199 48.87,43.199 46.71,0 46.71,-43.129 46.71,-43.129 l -95.58,-0.07"
             id="path88"
             style="fill:#ffffff;fill-opacity:1;fill-rule:nonzero;stroke:none" /><path
             d="m 4185.63,258.121 96.25,0 0,293.75 -96.25,0 0,-293.75 z"
             id="path90"
             style="fill:#26519e;fill-opacity:1;fill-rule:nonzero;stroke:none" /><path
             d="m 5061.88,256.988 0,57.094 -118.13,0 c 0,0 -48.44,-1.25 -48.44,48.438 0,49.679 29.69,57.179 45.94,57.179 16.25,0 106.88,0 106.88,0 l 0,60 -105.63,0 c 0,0 -141.87,2.5 -141.87,-110 0,-112.5 118.75,-112.5 139.37,-112.5 20.63,0 121.88,-0.211 121.88,-0.211"
             id="path92"
             style="fill:#26519e;fill-opacity:1;fill-rule:nonzero;stroke:none" /><path
             d="m 5117.67,258.121 0,293.09 93.87,0 0,-105.82 c 0,0 26.34,31.16 81.69,31.16 0,0 82.14,3.551 83.02,-68.641 l 0,-149.789 -94.48,0 0,122.789 c 0,0 0.52,31.629 -32.07,31.629 0,0 -36.86,4.16 -38.26,-45.98 l 0,-108.438 -93.77,0"
             id="path94"
             style="fill:#26519e;fill-opacity:1;fill-rule:nonzero;stroke:none" /></g></g></g></g></svg>