<?xml version="1.0" encoding="utf-8"?>
<!-- Generator: Adobe Illustrator 16.0.3, SVG Export Plug-In . SVG Version: 6.00 Build 0)  -->
<!DOCTYPE svg PUBLIC "-//W3C//DTD SVG 1.1//EN" "http://www.w3.org/Graphics/SVG/1.1/DTD/svg11.dtd">
<svg version="1.1" id="Layer_1" xmlns="http://www.w3.org/2000/svg" xmlns:xlink="http://www.w3.org/1999/xlink" x="0px" y="0px"
	 width="274.838px" height="87.051px" viewBox="0.001 0 274.838 87.051" enable-background="new 0.001 0 274.838 87.051"
	 xml:space="preserve">
<g>
	<rect x="21.057" y="19.754" fill="#41BEC1" width="54.136" height="54.136"/>
	<path fill="#3D4C6B" d="M76.757,18.075l0.005-0.005L58.008,0.617l-0.004,0.005C57.593,0.239,57.047,0,56.44,0H2.303
		C1.031,0,0.001,1.031,0.001,2.302v54.137c0,0.667,0.287,1.259,0.738,1.682l-0.003,0.002l18.753,17.45l0.005-0.005
		c0.412,0.382,0.958,0.623,1.564,0.623h54.136c1.271,0,2.301-1.029,2.301-2.301V19.754C77.494,19.089,77.208,18.495,76.757,18.075z
		 M58.74,55.441V22.052h14.155v46.555L58.74,55.441z M4.602,54.141V8.073l14.155,12.708v33.36H4.602z M18.757,58.741v9.868
		L8.152,58.741H18.757z M58.74,17.453V7.584l10.604,9.869H58.74z M54.141,17.453H21.935L7.62,4.601h46.521V17.453z M54.141,22.052
		v32.089H23.355V22.052H54.141z M23.355,58.741h32.181l13.809,12.852h-45.99V58.741z"/>
	<path fill="#3D4C6B" d="M109.113,73.89h-13.41V21.743h13.41v20.486h6.706l11.621-20.486h14.155l-14.603,25.701l14.526,26.446
		h-14.154l-11.545-21.234h-6.706V73.89z"/>
	<path fill="#3D4C6B" d="M154.542,87.051c-2.633,0-5.861-0.249-9.686-0.746v-9.685h6.705c1.887,0,3.114-0.52,3.687-1.565
		c0.572-1.042,0.461-2.506-0.333-4.395l-15.273-36.504h13.782l9.313,25.329l7.822-25.329h13.78L169.439,75.13
		c-1.44,3.923-3.301,6.891-5.584,8.901C161.571,86.045,158.464,87.051,154.542,87.051z"/>
	<path fill="#3D4C6B" d="M206.32,63.583c2.634,0,5.61-0.496,8.94-1.49V34.157h13.037v39.484H216.75l-0.746-3.726
		c-2.336,1.539-4.73,2.673-7.188,3.391c-2.461,0.718-4.532,1.08-6.221,1.08h-3.354c-3.378,0-6.084-1.018-8.119-3.054
		c-2.036-2.035-3.056-4.743-3.056-8.121V34.157h13.039v26.819c0,0.747,0.247,1.365,0.744,1.865c0.496,0.493,1.117,0.742,1.861,0.742
		H206.32z"/>
	<path fill="#3D4C6B" d="M247.646,73.605V86.27h-13.035V34.123h11.549l0.744,3.723c2.334-1.537,4.731-2.668,7.188-3.388
		s4.532-1.08,6.222-1.08h3.353c3.376,0,6.082,1.018,8.119,3.054c2.036,2.038,3.054,4.744,3.054,8.122v17.134
		c0,3.723-1.056,6.64-3.165,8.751c-2.112,2.114-5.028,3.167-8.752,3.167H247.646z M256.587,44.18c-2.631,0-5.612,0.497-8.941,1.487
		v17.88h11.179c1.982,0,2.979-0.993,2.979-2.979V46.785c0-0.745-0.251-1.363-0.747-1.863c-0.495-0.493-1.115-0.741-1.86-0.741
		H256.587z"/>
</g>
</svg>
