<?xml version="1.0" encoding="UTF-8" standalone="no"?>
<!-- Created with Inkscape (http://www.inkscape.org/) -->

<svg
   xmlns:dc="http://purl.org/dc/elements/1.1/"
   xmlns:cc="http://creativecommons.org/ns#"
   xmlns:rdf="http://www.w3.org/1999/02/22-rdf-syntax-ns#"
   xmlns:svg="http://www.w3.org/2000/svg"
   xmlns="http://www.w3.org/2000/svg"
   version="1.1"
   width="1860.2375"
   height="1315.45"
   id="svg2"
   xml:space="preserve"><metadata
     id="metadata8"><rdf:RDF><cc:Work
         rdf:about=""><dc:format>image/svg+xml</dc:format><dc:type
           rdf:resource="http://purl.org/dc/dcmitype/StillImage" /><dc:title></dc:title></cc:Work></rdf:RDF></metadata><defs
     id="defs6"><clipPath
       id="clipPath18"><path
         d="m 0,1052.363 1488.189,0 L 1488.189,0 0,0 0,1052.363 z"
         id="path20" /></clipPath></defs><g
     transform="matrix(1.25,0,0,-1.25,0,1315.45)"
     id="g10"><path
       d="m 1461.967,26.182 -1435.744,0 0,1000 1435.744,0 0,-1000 z"
       id="path12"
       style="fill:#0087ff;fill-opacity:1;fill-rule:nonzero;stroke:none" /><g
       id="g14"><g
         clip-path="url(#clipPath18)"
         id="g16"><g
           transform="translate(619.1992,543.354)"
           id="g22"><path
             d="m 0,0 c 12.872,0 16.1,-11.7 15.943,-18.764 l -33.604,0 C -16.875,-10.915 -11.93,0 0,0 m 82.044,13.122 c -8.162,0 -17.203,-5.479 -20.971,-16.31 l -0.613,0 -0.613,14.593 -16.802,0 c 0.472,-6.907 0.614,-14.29 0.614,-24.65 l 0,-51.754 19.377,0 0,39.49 c 0,2.198 0.298,4.282 0.612,6.009 1.727,8.634 8.031,14.595 17.293,14.595 2.354,0 4.071,-0.298 5.641,-0.615 l 0,18.151 c -1.57,0.314 -2.653,0.491 -4.538,0.491 m -80.94,0 c -24.489,0 -37.283,-19.892 -37.283,-41.083 0,-23.391 14.565,-38.754 39.367,-38.754 10.988,0 20.143,2.113 26.735,4.782 l -2.944,13.368 c -5.808,-2.198 -12.145,-3.434 -21.093,-3.434 -12.244,0 -23.075,5.93 -23.547,19.745 l 51.14,0 c 0.314,1.726 0.614,4.605 0.614,8.216 0,16.798 -8.03,37.16 -32.989,37.16 m -79.225,13.735 c 13.344,0 21.584,-6.376 21.584,-18.15 0,-12.401 -8.859,-19.377 -23.3,-19.377 -3.925,0 -7.089,0.107 -9.443,0.735 l 0,35.811 c 2.04,0.471 5.822,0.981 11.159,0.981 m -0.736,14.717 c -13.029,0 -22.648,-0.952 -29.556,-2.207 l 0,-104.366 19.133,0 0,39.858 c 2.511,-0.472 5.832,-0.613 9.443,-0.613 13.656,0 25.788,3.589 33.479,11.282 5.965,5.652 9.076,13.992 9.076,24.038 0,9.889 -4.022,18.121 -10.301,23.301 -6.75,5.651 -17.146,8.707 -31.274,8.707 m 172.429,-106.573 19.5,0 0,111.479 -19.5,0 0,-111.479 z"
             id="path24"
             style="fill:#ffffff;fill-opacity:1;fill-rule:nonzero;stroke:none" /></g><g
           transform="translate(866.2764,515.6377)"
           id="g26"><path
             d="m 0,0 c 1.663,0.074 3.444,0.039 5.15,0 l 0,-10.425 c 0,-1.256 -0.264,-2.879 -0.735,-4.293 -1.727,-5.494 -7.27,-10.546 -14.962,-10.546 -6.122,0 -11.037,3.502 -11.037,11.037 0,10.165 9.94,13.707 21.584,14.227 m 188.372,27.716 c 12.872,0 15.979,-11.7 15.821,-18.764 l -33.604,0 c 0.785,7.849 5.852,18.764 17.783,18.764 m -75.055,0 c 12.872,0 15.977,-11.7 15.821,-18.764 l -33.603,0 c 0.785,7.849 5.853,18.764 17.782,18.764 m 193.471,13.122 c -17.738,0 -28.942,-10.537 -28.942,-24.037 -0.158,-8.947 6.18,-17.018 21.092,-22.197 9.42,-3.297 12.509,-5.98 12.509,-11.162 0,-5.022 -3.785,-8.461 -12.262,-8.461 -6.908,0 -15.226,2.728 -19.623,5.397 l -3.8,-13.982 c 5.65,-3.139 14.039,-5.395 23.3,-5.395 20.25,0 31.028,10.1 31.028,23.914 -0.157,11.303 -6.544,18.4 -20.359,23.425 -9.732,3.452 -13.367,5.803 -13.367,10.668 0,4.71 3.763,8.095 10.67,8.095 6.75,0 12.892,-2.532 16.187,-4.415 l 3.802,13.613 c -4.394,2.354 -11.757,4.537 -20.235,4.537 m -37.895,0 c -8.164,0 -17.081,-5.479 -20.847,-16.31 l -0.613,0 -0.617,14.593 -16.799,0 c 0.471,-6.907 0.473,-14.289 0.613,-24.65 l 0,-51.753 19.253,0 0,39.489 c 0,2.198 0.3,4.282 0.613,6.01 1.728,8.633 8.032,14.594 17.293,14.594 2.356,0 4.072,-0.298 5.643,-0.614 l 0,18.151 c -1.571,0.314 -2.656,0.49 -4.539,0.49 m -79.417,0 c -24.489,0 -37.404,-19.891 -37.404,-41.083 0,-23.391 14.564,-38.754 39.366,-38.754 10.988,0 20.142,2.113 26.736,4.782 l -2.82,13.368 c -5.808,-2.198 -12.27,-3.433 -21.216,-3.433 -12.247,0 -23.077,5.929 -23.549,19.744 l 51.141,0 c 0.314,1.726 0.737,4.605 0.737,8.217 0,16.797 -8.032,37.159 -32.991,37.159 m -75.055,0 c -24.488,0 -37.404,-19.891 -37.404,-41.083 0,-23.391 14.563,-38.754 39.367,-38.754 10.988,0 20.142,2.113 26.735,4.782 l -2.82,13.368 c -5.81,-2.198 -12.27,-3.433 -21.218,-3.433 -12.244,0 -23.075,5.929 -23.546,19.744 l 51.141,0 c 0.314,1.726 0.736,4.605 0.736,8.217 0,16.797 -8.031,37.159 -32.991,37.159 m -42.556,0 c -8.162,0 -17.203,-5.479 -20.97,-16.31 l -0.614,0 -0.613,14.593 -16.801,0 c 0.471,-6.907 0.613,-14.289 0.613,-24.65 l 0,-51.753 19.376,0 0,39.489 c 0,2.198 0.299,4.282 0.614,6.01 1.727,8.633 8.031,14.594 17.293,14.594 2.353,0 4.07,-0.298 5.64,-0.614 l 0,18.151 c -1.57,0.314 -2.654,0.49 -4.538,0.49 m -79.469,0 c -12.086,0 -21.942,-3.292 -27.593,-6.745 l 3.678,-12.509 c 5.181,3.297 13.069,5.642 20.604,5.642 13.499,0 15.575,-8.345 15.575,-13.368 l 0,-1.227 c -28.256,0.158 -45.376,-9.635 -45.376,-28.943 0,-11.616 8.653,-22.687 24.036,-22.687 9.89,0 17.858,4.214 22.567,10.179 l 0.49,0 1.227,-8.462 17.414,0 c -0.785,4.709 -1.104,11.365 -1.104,18.273 l 0,27.716 c 0,16.64 -7.029,32.131 -31.518,32.131 m -60.829,29.433 c -32.337,0 -56.536,-21.073 -56.536,-55.923 0,-32.181 20.368,-53.347 53.961,-53.347 12.715,0 22.796,2.428 27.349,4.782 l -3.19,15.208 c -5.022,-2.354 -13.121,-3.925 -20.97,-3.925 -23.233,0 -36.914,15.031 -36.914,38.264 0,25.429 15.531,38.876 37.037,38.876 8.79,0 15.702,-1.85 20.725,-4.047 l 4.292,15.33 c -3.924,2.041 -13.039,4.782 -25.754,4.782"
             id="path28"
             style="fill:#1b1b1b;fill-opacity:1;fill-rule:nonzero;stroke:none" /></g><g
           transform="translate(321.0117,593.5986)"
           id="g30"><path
             d="m 0,0 c -36.75,-30.895 -39.115,-82.93 -5.288,-116.335 19.928,-19.678 47.995,-28.347 75.189,-25.935 l -48.873,48.262 c -19.969,19.72 -20.778,50.416 3.558,70.612 18.01,14.921 45.428,17.07 65.949,5.692 L 116.961,4.512 C 82.698,28.896 33.073,27.805 -0.001,0 L 0,0 z"
             id="path32"
             style="fill:#ffffff;fill-opacity:1;fill-rule:nonzero;stroke:none" /></g><g
           transform="translate(363.9585,550.3057)"
           id="g34"><path
             d="m 0,0 c -11.262,-9.994 -10.973,-24.812 -0.748,-34.338 9.219,-8.534 25.056,-10.496 36.737,-1.2 10.901,8.639 12.413,24.649 1.482,35.157 C 27.402,9.278 10.483,9.337 0,0"
             id="path36"
             style="fill:#ffffff;fill-opacity:1;fill-rule:nonzero;stroke:none" /></g><g
           transform="translate(457.6855,578.5874)"
           id="g38"><path
             d="m 0,0 -26.366,-22.198 c 10.481,-18.878 7.329,-42.726 -10.793,-58.393 -11.094,-9.59 -26.489,-9.82 -26.489,-9.82 l 51.49,-51.296 -2.067,35.858 C 18.865,-78.03 23.965,-33.08 0,0"
             id="path40"
             style="fill:#1b1b1b;fill-opacity:1;fill-rule:nonzero;stroke:none" /></g></g></g></g></svg>